<?xml version="1.0" encoding="us-ascii" standalone="no"?><svg xmlns="http://www.w3.org/2000/svg" xmlns:xlink="http://www.w3.org/1999/xlink" contentStyleType="text/css" height="806px" preserveAspectRatio="none" style="width:1344px;height:806px;" version="1.1" viewBox="0 0 1344 806" width="1344px" zoomAndPan="magnify"><defs/><g><!--cluster nfr--><g id="cluster_nfr"><rect fill="#FFDAB9" height="389" rx="2.5" ry="2.5" style="stroke:#808080;stroke-width:1.0;" width="516" x="279" y="57"/><rect fill="#FFDAB9" height="10" style="stroke:#808080;stroke-width:1.0;" width="15" x="775" y="62"/><rect fill="#FFDAB9" height="2" style="stroke:#808080;stroke-width:1.0;" width="4" x="773" y="64"/><rect fill="#FFDAB9" height="2" style="stroke:#808080;stroke-width:1.0;" width="4" x="773" y="68"/><text fill="#000000" font-family="sans-serif" font-size="14" font-weight="bold" lengthAdjust="spacing" textLength="129" x="472.5" y="83.5352">nessus file reader</text><text fill="#000000" font-family="sans-serif" font-size="14" font-weight="bold" lengthAdjust="spacing" textLength="5" x="534.5" y="100.0234">&#160;</text></g><!--entity user--><g id="elem_user"><ellipse cx="21.5" cy="379.5" fill="#F1F1F1" rx="8" ry="8" style="stroke:#808080;stroke-width:0.5;"/><path d="M21.5,387.5 L21.5,414.5 M8.5,395.5 L34.5,395.5 M21.5,414.5 L8.5,429.5 M21.5,414.5 L34.5,429.5 " fill="none" style="stroke:#808080;stroke-width:0.5;"/><text fill="#808080" font-family="sans-serif" font-size="14" lengthAdjust="spacing" textLength="31" x="6" y="444.5352">User</text></g><!--entity source_nessus_file--><g id="elem_source_nessus_file"><rect fill="#F1F1F1" height="39.4883" rx="2.5" ry="2.5" style="stroke:#181818;stroke-width:0.5;" width="121" x="95" y="355.5"/><polygon fill="#F1F1F1" points="199,360.5,199,374.5,211,374.5,211,366.5,205,360.5,199,360.5" style="stroke:#181818;stroke-width:0.5;"/><line style="stroke:#181818;stroke-width:0.5;" x1="205" x2="205" y1="360.5" y2="366.5"/><line style="stroke:#181818;stroke-width:0.5;" x1="211" x2="205" y1="366.5" y2="366.5"/><text fill="#000000" font-family="sans-serif" font-size="14" lengthAdjust="spacing" textLength="91" x="105" y="382.0352">scan1.nessus</text></g><!--entity number_of_scanned_hosts--><g id="elem_number_of_scanned_hosts"><rect fill="#F1F1F1" height="85.9531" rx="2.5" ry="2.5" style="stroke:#181818;stroke-width:0.5;" width="163" x="74" y="413"/><text fill="#000000" font-family="sans-serif" font-size="14" lengthAdjust="spacing" textLength="126" x="84" y="436.5352">Maximum number</text><text fill="#000000" font-family="sans-serif" font-size="14" lengthAdjust="spacing" textLength="116" x="84" y="453.0234">of scanned hosts</text><text fill="#000000" font-family="sans-serif" font-size="14" lengthAdjust="spacing" textLength="128" x="84" y="469.5117">in new nessus files</text><text fill="#000000" font-family="sans-serif" font-size="14" lengthAdjust="spacing" textLength="29" x="84" y="486">e.g.,</text><text fill="#000000" font-family="monospace" font-size="14" lengthAdjust="spacing" textLength="8" x="117" y="485.6514">2</text><text fill="#000000" font-family="sans-serif" font-size="14" lengthAdjust="spacing" textLength="98" x="129" y="486">scanned hosts</text></g><!--entity target_nessus_file_1_label--><g id="elem_target_nessus_file_1_label"><text fill="#808080" font-family="sans-serif" font-size="14" lengthAdjust="spacing" textLength="107" x="1033.5" y="35.5352">scan1_1.nessus</text></g><!--entity target_nessus_file_1--><g id="elem_target_nessus_file_1"><path d="M837,68.5 L837,255.043 A2.5,2.5 0 0 0 839.5,257.543 L1334.5,257.543 A2.5,2.5 0 0 0 1337,255.043 L1337,76 L1327,66 L839.5,66 A2.5,2.5 0 0 0 837,68.5 " fill="#F1F1F1" style="stroke:#181818;stroke-width:0.5;"/><path d="M1327,66 L1327,73.5 A2.5,2.5 0 0 0 1329.5,76 L1337,76 " fill="#F1F1F1" style="stroke:#181818;stroke-width:0.5;"/><text fill="#0000FF" font-family="monospace" font-size="14" lengthAdjust="spacing" textLength="176" x="847" y="88.9951">&lt;?xml&#160;version="1.0"&#160;?&gt;</text><text fill="#0000FF" font-family="monospace" font-size="14" lengthAdjust="spacing" textLength="168" x="847" y="105.292">&lt;NessusClientData_v2&gt;</text><text fill="#0000FF" font-family="monospace" font-size="14" lengthAdjust="spacing" textLength="64" x="847" y="121.5889">&lt;Policy&gt;</text><text fill="#000000" font-family="sans-serif" font-size="14" lengthAdjust="spacing" textLength="4" x="865" y="140.4258">&#160;</text><text fill="#0000FF" font-family="monospace" font-size="14" lengthAdjust="spacing" textLength="216" x="869" y="140.0771">TARGET:host1,192.168.8.0/24</text><rect fill="#F1F1F1" height="2" style="stroke:#000000;stroke-width:0.5;" width="2" x="862" y="134.1348"/><line style="stroke:#000000;stroke-width:0.5;" x1="855" x2="863" y1="135.1348" y2="135.1348"/><line style="stroke:#000000;stroke-width:0.5;" x1="855" x2="855" y1="126.8906" y2="135.1348"/><text fill="#0000FF" font-family="monospace" font-size="14" lengthAdjust="spacing" textLength="72" x="847" y="158.374">&lt;/Policy&gt;</text><text fill="#0000FF" font-family="monospace" font-size="14" lengthAdjust="spacing" textLength="480" x="847" y="174.6709">&lt;Report&#160;name="ScanName"&#160;xmlns:cm="http://www.nessus.org/cm"&gt;</text><text fill="#000000" font-family="sans-serif" font-size="14" lengthAdjust="spacing" textLength="4" x="865" y="193.5078">&#160;</text><text fill="#008000" font-family="monospace" font-size="14" lengthAdjust="spacing" textLength="328" x="869" y="193.1592">&lt;ReportHost&#160;name="host1"&gt;...&lt;/ReportHost&gt;</text><text fill="#000000" font-family="sans-serif" font-size="14" lengthAdjust="spacing" textLength="4" x="865" y="209.9961">&#160;</text><text fill="#008000" font-family="monospace" font-size="14" lengthAdjust="spacing" textLength="376" x="869" y="209.6475">&lt;ReportHost&#160;name="192.168.8.1"&gt;...&lt;/ReportHost&gt;</text><rect fill="#F1F1F1" height="2" style="stroke:#000000;stroke-width:0.5;" width="2" x="862" y="187.2168"/><line style="stroke:#000000;stroke-width:0.5;" x1="855" x2="863" y1="188.2168" y2="188.2168"/><line style="stroke:#000000;stroke-width:0.5;" x1="855" x2="855" y1="179.9727" y2="188.2168"/><rect fill="#F1F1F1" height="2" style="stroke:#000000;stroke-width:0.5;" width="2" x="862" y="203.7051"/><line style="stroke:#000000;stroke-width:0.5;" x1="855" x2="863" y1="204.7051" y2="204.7051"/><line style="stroke:#000000;stroke-width:0.5;" x1="855" x2="855" y1="188.2168" y2="204.7051"/><text fill="#0000FF" font-family="monospace" font-size="14" lengthAdjust="spacing" textLength="72" x="847" y="227.9443">&lt;/Report&gt;</text><text fill="#0000FF" font-family="monospace" font-size="14" lengthAdjust="spacing" textLength="176" x="847" y="244.2412">&lt;/NessusClientData_v2&gt;</text></g><!--entity target_nessus_file_2_label--><g id="elem_target_nessus_file_2_label"><text fill="#808080" font-family="sans-serif" font-size="14" lengthAdjust="spacing" textLength="107" x="1033.5" y="299.5352">scan1_2.nessus</text></g><!--entity target_nessus_file_2--><g id="elem_target_nessus_file_2"><path d="M837,332.5 L837,519.043 A2.5,2.5 0 0 0 839.5,521.543 L1334.5,521.543 A2.5,2.5 0 0 0 1337,519.043 L1337,340 L1327,330 L839.5,330 A2.5,2.5 0 0 0 837,332.5 " fill="#F1F1F1" style="stroke:#181818;stroke-width:0.5;"/><path d="M1327,330 L1327,337.5 A2.5,2.5 0 0 0 1329.5,340 L1337,340 " fill="#F1F1F1" style="stroke:#181818;stroke-width:0.5;"/><text fill="#0000FF" font-family="monospace" font-size="14" lengthAdjust="spacing" textLength="176" x="847" y="352.9951">&lt;?xml&#160;version="1.0"&#160;?&gt;</text><text fill="#0000FF" font-family="monospace" font-size="14" lengthAdjust="spacing" textLength="168" x="847" y="369.292">&lt;NessusClientData_v2&gt;</text><text fill="#0000FF" font-family="monospace" font-size="14" lengthAdjust="spacing" textLength="64" x="847" y="385.5889">&lt;Policy&gt;</text><text fill="#000000" font-family="sans-serif" font-size="14" lengthAdjust="spacing" textLength="4" x="865" y="404.4258">&#160;</text><text fill="#0000FF" font-family="monospace" font-size="14" lengthAdjust="spacing" textLength="216" x="869" y="404.0771">TARGET:host1,192.168.8.0/24</text><rect fill="#F1F1F1" height="2" style="stroke:#000000;stroke-width:0.5;" width="2" x="862" y="398.1348"/><line style="stroke:#000000;stroke-width:0.5;" x1="855" x2="863" y1="399.1348" y2="399.1348"/><line style="stroke:#000000;stroke-width:0.5;" x1="855" x2="855" y1="390.8906" y2="399.1348"/><text fill="#0000FF" font-family="monospace" font-size="14" lengthAdjust="spacing" textLength="72" x="847" y="422.374">&lt;/Policy&gt;</text><text fill="#0000FF" font-family="monospace" font-size="14" lengthAdjust="spacing" textLength="480" x="847" y="438.6709">&lt;Report&#160;name="ScanName"&#160;xmlns:cm="http://www.nessus.org/cm"&gt;</text><text fill="#000000" font-family="sans-serif" font-size="14" lengthAdjust="spacing" textLength="4" x="865" y="457.5078">&#160;</text><text fill="#FF0000" font-family="monospace" font-size="14" lengthAdjust="spacing" textLength="376" x="869" y="457.1592">&lt;ReportHost&#160;name="192.168.8.2"&gt;...&lt;/ReportHost&gt;</text><text fill="#000000" font-family="sans-serif" font-size="14" lengthAdjust="spacing" textLength="4" x="865" y="473.9961">&#160;</text><text fill="#FF0000" font-family="monospace" font-size="14" lengthAdjust="spacing" textLength="376" x="869" y="473.6475">&lt;ReportHost&#160;name="192.168.8.3"&gt;...&lt;/ReportHost&gt;</text><rect fill="#F1F1F1" height="2" style="stroke:#000000;stroke-width:0.5;" width="2" x="862" y="451.2168"/><line style="stroke:#000000;stroke-width:0.5;" x1="855" x2="863" y1="452.2168" y2="452.2168"/><line style="stroke:#000000;stroke-width:0.5;" x1="855" x2="855" y1="443.9727" y2="452.2168"/><rect fill="#F1F1F1" height="2" style="stroke:#000000;stroke-width:0.5;" width="2" x="862" y="467.7051"/><line style="stroke:#000000;stroke-width:0.5;" x1="855" x2="863" y1="468.7051" y2="468.7051"/><line style="stroke:#000000;stroke-width:0.5;" x1="855" x2="855" y1="452.2168" y2="468.7051"/><text fill="#0000FF" font-family="monospace" font-size="14" lengthAdjust="spacing" textLength="72" x="847" y="491.9443">&lt;/Report&gt;</text><text fill="#0000FF" font-family="monospace" font-size="14" lengthAdjust="spacing" textLength="176" x="847" y="508.2412">&lt;/NessusClientData_v2&gt;</text></g><!--entity target_nessus_file_3_label--><g id="elem_target_nessus_file_3_label"><text fill="#808080" font-family="sans-serif" font-size="14" lengthAdjust="spacing" textLength="107" x="1033.5" y="563.5352">scan1_3.nessus</text></g><!--entity target_nessus_file_3--><g id="elem_target_nessus_file_3"><path d="M837,597 L837,767.0547 A2.5,2.5 0 0 0 839.5,769.5547 L1334.5,769.5547 A2.5,2.5 0 0 0 1337,767.0547 L1337,604.5 L1327,594.5 L839.5,594.5 A2.5,2.5 0 0 0 837,597 " fill="#F1F1F1" style="stroke:#181818;stroke-width:0.5;"/><path d="M1327,594.5 L1327,602 A2.5,2.5 0 0 0 1329.5,604.5 L1337,604.5 " fill="#F1F1F1" style="stroke:#181818;stroke-width:0.5;"/><text fill="#0000FF" font-family="monospace" font-size="14" lengthAdjust="spacing" textLength="176" x="847" y="617.4951">&lt;?xml&#160;version="1.0"&#160;?&gt;</text><text fill="#0000FF" font-family="monospace" font-size="14" lengthAdjust="spacing" textLength="168" x="847" y="633.792">&lt;NessusClientData_v2&gt;</text><text fill="#0000FF" font-family="monospace" font-size="14" lengthAdjust="spacing" textLength="64" x="847" y="650.0889">&lt;Policy&gt;</text><text fill="#000000" font-family="sans-serif" font-size="14" lengthAdjust="spacing" textLength="4" x="865" y="668.9258">&#160;</text><text fill="#0000FF" font-family="monospace" font-size="14" lengthAdjust="spacing" textLength="216" x="869" y="668.5771">TARGET:host1,192.168.8.0/24</text><rect fill="#F1F1F1" height="2" style="stroke:#000000;stroke-width:0.5;" width="2" x="862" y="662.6348"/><line style="stroke:#000000;stroke-width:0.5;" x1="855" x2="863" y1="663.6348" y2="663.6348"/><line style="stroke:#000000;stroke-width:0.5;" x1="855" x2="855" y1="655.3906" y2="663.6348"/><text fill="#0000FF" font-family="monospace" font-size="14" lengthAdjust="spacing" textLength="72" x="847" y="686.874">&lt;/Policy&gt;</text><text fill="#0000FF" font-family="monospace" font-size="14" lengthAdjust="spacing" textLength="480" x="847" y="703.1709">&lt;Report&#160;name="ScanName"&#160;xmlns:cm="http://www.nessus.org/cm"&gt;</text><text fill="#000000" font-family="sans-serif" font-size="14" lengthAdjust="spacing" textLength="4" x="865" y="722.0078">&#160;</text><text fill="#FFA500" font-family="monospace" font-size="14" lengthAdjust="spacing" textLength="376" x="869" y="721.6592">&lt;ReportHost&#160;name="192.168.8.4"&gt;...&lt;/ReportHost&gt;</text><rect fill="#F1F1F1" height="2" style="stroke:#000000;stroke-width:0.5;" width="2" x="862" y="715.7168"/><line style="stroke:#000000;stroke-width:0.5;" x1="855" x2="863" y1="716.7168" y2="716.7168"/><line style="stroke:#000000;stroke-width:0.5;" x1="855" x2="855" y1="708.4727" y2="716.7168"/><text fill="#0000FF" font-family="monospace" font-size="14" lengthAdjust="spacing" textLength="72" x="847" y="739.9561">&lt;/Report&gt;</text><text fill="#0000FF" font-family="monospace" font-size="14" lengthAdjust="spacing" textLength="176" x="847" y="756.2529">&lt;/NessusClientData_v2&gt;</text></g><!--entity source_nessus_file_nfr_label--><g id="elem_source_nessus_file_nfr_label"><text fill="#000000" font-family="sans-serif" font-size="14" lengthAdjust="spacing" textLength="91" x="491.5" y="123.5352">scan1.nessus</text></g><!--entity source_nessus_file_nfr--><g id="elem_source_nessus_file_nfr"><path d="M287,157 L287,393.0078 A2.5,2.5 0 0 0 289.5,395.5078 L784.5,395.5078 A2.5,2.5 0 0 0 787,393.0078 L787,164.5 L777,154.5 L289.5,154.5 A2.5,2.5 0 0 0 287,157 " fill="#F1F1F1" style="stroke:#181818;stroke-width:0.5;"/><path d="M777,154.5 L777,162 A2.5,2.5 0 0 0 779.5,164.5 L787,164.5 " fill="#F1F1F1" style="stroke:#181818;stroke-width:0.5;"/><text fill="#0000FF" font-family="monospace" font-size="14" lengthAdjust="spacing" textLength="176" x="297" y="177.4951">&lt;?xml&#160;version="1.0"&#160;?&gt;</text><text fill="#0000FF" font-family="monospace" font-size="14" lengthAdjust="spacing" textLength="168" x="297" y="193.792">&lt;NessusClientData_v2&gt;</text><text fill="#0000FF" font-family="monospace" font-size="14" lengthAdjust="spacing" textLength="64" x="297" y="210.0889">&lt;Policy&gt;</text><text fill="#000000" font-family="sans-serif" font-size="14" lengthAdjust="spacing" textLength="4" x="315" y="228.9258">&#160;</text><text fill="#0000FF" font-family="monospace" font-size="14" lengthAdjust="spacing" textLength="216" x="319" y="228.5771">TARGET:host1,192.168.8.0/24</text><rect fill="#F1F1F1" height="2" style="stroke:#000000;stroke-width:0.5;" width="2" x="312" y="222.6348"/><line style="stroke:#000000;stroke-width:0.5;" x1="305" x2="313" y1="223.6348" y2="223.6348"/><line style="stroke:#000000;stroke-width:0.5;" x1="305" x2="305" y1="215.3906" y2="223.6348"/><text fill="#0000FF" font-family="monospace" font-size="14" lengthAdjust="spacing" textLength="72" x="297" y="246.874">&lt;/Policy&gt;</text><text fill="#0000FF" font-family="monospace" font-size="14" lengthAdjust="spacing" textLength="480" x="297" y="263.1709">&lt;Report&#160;name="ScanName"&#160;xmlns:cm="http://www.nessus.org/cm"&gt;</text><text fill="#000000" font-family="sans-serif" font-size="14" lengthAdjust="spacing" textLength="4" x="315" y="282.0078">&#160;</text><text fill="#008000" font-family="monospace" font-size="14" lengthAdjust="spacing" textLength="312" x="319" y="281.6592">&lt;ReportHost&#160;name="host1"&gt;&#160;&lt;/ReportHost&gt;</text><text fill="#000000" font-family="sans-serif" font-size="14" lengthAdjust="spacing" textLength="4" x="315" y="298.4961">&#160;</text><text fill="#008000" font-family="monospace" font-size="14" lengthAdjust="spacing" textLength="376" x="319" y="298.1475">&lt;ReportHost&#160;name="192.168.8.1"&gt;...&lt;/ReportHost&gt;</text><text fill="#000000" font-family="sans-serif" font-size="14" lengthAdjust="spacing" textLength="4" x="315" y="314.9844">&#160;</text><text fill="#FF0000" font-family="monospace" font-size="14" lengthAdjust="spacing" textLength="376" x="319" y="314.6357">&lt;ReportHost&#160;name="192.168.8.2"&gt;...&lt;/ReportHost&gt;</text><text fill="#000000" font-family="sans-serif" font-size="14" lengthAdjust="spacing" textLength="4" x="315" y="331.4727">&#160;</text><text fill="#FF0000" font-family="monospace" font-size="14" lengthAdjust="spacing" textLength="376" x="319" y="331.124">&lt;ReportHost&#160;name="192.168.8.3"&gt;...&lt;/ReportHost&gt;</text><text fill="#000000" font-family="sans-serif" font-size="14" lengthAdjust="spacing" textLength="4" x="315" y="347.9609">&#160;</text><text fill="#FFA500" font-family="monospace" font-size="14" lengthAdjust="spacing" textLength="376" x="319" y="347.6123">&lt;ReportHost&#160;name="192.168.8.4"&gt;...&lt;/ReportHost&gt;</text><rect fill="#F1F1F1" height="2" style="stroke:#000000;stroke-width:0.5;" width="2" x="312" y="275.7168"/><line style="stroke:#000000;stroke-width:0.5;" x1="305" x2="313" y1="276.7168" y2="276.7168"/><line style="stroke:#000000;stroke-width:0.5;" x1="305" x2="305" y1="268.4727" y2="276.7168"/><rect fill="#F1F1F1" height="2" style="stroke:#000000;stroke-width:0.5;" width="2" x="312" y="292.2051"/><line style="stroke:#000000;stroke-width:0.5;" x1="305" x2="313" y1="293.2051" y2="293.2051"/><line style="stroke:#000000;stroke-width:0.5;" x1="305" x2="305" y1="276.7168" y2="293.2051"/><rect fill="#F1F1F1" height="2" style="stroke:#000000;stroke-width:0.5;" width="2" x="312" y="308.6934"/><line style="stroke:#000000;stroke-width:0.5;" x1="305" x2="313" y1="309.6934" y2="309.6934"/><line style="stroke:#000000;stroke-width:0.5;" x1="305" x2="305" y1="293.2051" y2="309.6934"/><rect fill="#F1F1F1" height="2" style="stroke:#000000;stroke-width:0.5;" width="2" x="312" y="325.1816"/><line style="stroke:#000000;stroke-width:0.5;" x1="305" x2="313" y1="326.1816" y2="326.1816"/><line style="stroke:#000000;stroke-width:0.5;" x1="305" x2="305" y1="309.6934" y2="326.1816"/><rect fill="#F1F1F1" height="2" style="stroke:#000000;stroke-width:0.5;" width="2" x="312" y="341.6699"/><line style="stroke:#000000;stroke-width:0.5;" x1="305" x2="313" y1="342.6699" y2="342.6699"/><line style="stroke:#000000;stroke-width:0.5;" x1="305" x2="305" y1="326.1816" y2="342.6699"/><text fill="#0000FF" font-family="monospace" font-size="14" lengthAdjust="spacing" textLength="72" x="297" y="365.9092">&lt;/Report&gt;</text><text fill="#0000FF" font-family="monospace" font-size="14" lengthAdjust="spacing" textLength="176" x="297" y="382.2061">&lt;/NessusClientData_v2&gt;</text></g><polygon fill="#808080" points="94.881,390.3564,85.1678,388.7277,90.0391,391.6036,87.1633,396.4749,94.881,390.3564" style="stroke:#808080;stroke-width:1.0;"/><path d="M37.1307,405.2315 C51.2268,401.6007 67.6942,397.3591 89.0707,391.853 " fill="none" style="stroke:#808080;stroke-width:1.0;"/><polygon fill="#808080" points="73.8402,427.2802,66.7034,420.4931,69.1299,425.6031,64.0199,428.0296,73.8402,427.2802" style="stroke:#808080;stroke-width:1.0;"/><path d="M37.1307,414.2094 C46.5952,417.5794 54.0958,420.25 68.1879,425.2676 " fill="none" style="stroke:#808080;stroke-width:1.0;"/><polygon fill="#808080" points="278.758,404.9607,270.5176,399.5666,273.823,404.1573,269.2323,407.4627,278.758,404.9607" style="stroke:#808080;stroke-width:1.0;"/><path d="M216.2367,391.641 C226.1539,394.1334 236.6846,396.6359 247.316,398.9339 C252.6317,400.0829 257.9727,401.1808 263.2747,402.2008 C265.9257,402.7108 268.567,403.2013 271.1906,403.6689 C272.5023,403.9027 273.8097,404.1309 275.1116,404.3528 C275.7625,404.4638 276.4121,404.5733 277.0602,404.6812 C277.3843,404.7351 277.708,404.7887 278.0313,404.8418 C278.1929,404.8684 278.3545,404.8948 278.5159,404.9212 C278.5967,404.9344 272.7553,403.9835 272.836,403.9967 " fill="none" style="stroke:#808080;stroke-width:1.0;"/><text fill="#808080" font-family="sans-serif" font-size="13" lengthAdjust="spacing" textLength="8" x="260" y="396.5684">1</text><polygon fill="#808080" points="281.9515,446.0829,272.6642,442.8046,276.967,446.4769,273.2947,450.7797,281.9515,446.0829" style="stroke:#808080;stroke-width:1.0;"/><path d="M237.4468,449.601 C249.746,448.6288 262.9664,447.5837 276.7548,446.4937 C278.4784,446.3574 274.2295,446.6933 275.9701,446.5557 " fill="none" style="stroke:#808080;stroke-width:1.0;"/><text fill="#808080" font-family="sans-serif" font-size="13" lengthAdjust="spacing" textLength="8" x="260" y="443.5684">1</text><polygon fill="#808080" points="845.5444,258.1075,836.3135,261.5412,841.97,261.6037,841.9075,267.2602,845.5444,258.1075" style="stroke:#808080;stroke-width:1.0;"/><path d="M795,405 C844.9137,364.7651 794.0752,314.6202 837,267 C839.7485,263.9508 838.3108,265.1829 841.2551,262.303 " fill="none" style="stroke:#808080;stroke-width:1.0;"/><text fill="#808080" font-family="sans-serif" font-size="13" lengthAdjust="spacing" textLength="8" x="810" y="304.5684">2</text><polygon fill="#808080" points="836.7005,426,827.7005,422,831.7005,426,827.7005,430,836.7005,426" style="stroke:#808080;stroke-width:1.0;"/><path d="M795.2276,426 C797.2011,426 799.1757,426 801.1511,426 C805.1019,426 809.0556,426 813.0091,426 C820.9162,426 822.8221,426 830.7005,426 " fill="none" style="stroke:#808080;stroke-width:1.0;"/><text fill="#808080" font-family="sans-serif" font-size="13" lengthAdjust="spacing" textLength="8" x="810" y="422.5684">2</text><polygon fill="#808080" points="857.9125,594.3942,851.2879,587.1062,853.3365,592.379,848.0637,594.4277,857.9125,594.3942" style="stroke:#808080;stroke-width:1.0;"/><path d="M572.5411,446.0814 C573.0648,446.3821 573.5936,446.6856 574.1275,446.9918 C578.3983,449.4419 582.9921,452.0676 587.8781,454.8478 C607.4222,465.9684 631.642,479.5606 658.5738,494.2663 C712.4375,523.6778 777.1493,557.5435 837,585 C843.8523,588.1435 845.3468,588.8606 852.4213,591.976 " fill="none" style="stroke:#808080;stroke-width:1.0;"/><text fill="#808080" font-family="sans-serif" font-size="13" lengthAdjust="spacing" textLength="8" x="810" y="569.5684">2</text><text fill="#888888" font-family="sans-serif" font-size="10" lengthAdjust="spacing" textLength="3" x="1296.5" y="773.168">&#160;</text><text fill="#888888" font-family="sans-serif" font-size="10" lengthAdjust="spacing" textLength="3" x="1296.5" y="784.9453">&#160;</text><text fill="#888888" font-family="sans-serif" font-size="10" lengthAdjust="spacing" textLength="76" x="1260" y="796.7227">LimberDuck.org</text><!--SRC=[xLTHJzim47xthxWPJOM9fYH54mkbR1hLaBQYYR6N0OhSn4cZ9dPaEvIoxR_FSJeA9Gs5WiG3gLHPlky-tzdVERatcI1HIY0X4vuha2bLX14aHp7BY20f38W_YWJFMV2P9ro04eH9RQ9CeSQGae0Ar42D0vB6XC5NGSR-rMG4dS1CMAFfnCSaJWTK1Ba_ihY8kgX1MJ1rHmqLguIY1gDIvXB2EA4WZ0sQWF4xgpHWN9fabiGACi4pBabIh6xOe6H12GqLA0uYZeOAWbXGNyMS8U8h7NykDIkHW7_g0OQr96RKZGIPx2fwgSm84Q7YKCC1Ivym-__oXPlakV2fLyvu9XnKB41Of8UuJoxZD4-1vKMsPuo7K50m6i2GIoNFMCo0qJ7SI5LFKYkoDdMcZaxn5jwiMP9vFFIcDi_OaC_JZ3Dz483lxjmPAtr30MiP9VumoyDmzpfR-8r0FmaPqAGYAK_xUQMnsAjRss0SouEez8DJWoYUZbzenXqaEUrYtDc_J1Eue4BguzZ3jhM5OL_FBu8V6TxFIQnJF22AU1TE3VexJs9_SXFmnvl3d7mw_j8xSOlTipVj3uvblz-nTgojbhEzcBTrbtWESKmpBXGmaj8z_4DlrP4UOT39CkdwwHuUAfMvhTPuF9xkOL42BJ_5rT56Wb8s8pxKuKx9JUIu2vtMpFHGZbdUcicohFkv10tkONAUZAcz91FNrr14xo7RhYMRF-SILOUe4UIv-LzG4CtJOHm4b9tNLXhwYygAKqH4LDq2sVF5wCrkfSehpDHd5T5hTJvtTIwbtzNhyudbMoEwcNmh5OKMozQv8rldSR9rNcMxecnVpYN-_C9rbXAkKoFSzXtXjXydtFQhS5SKxijxqzVePQQuAX12fljeDhjLVKIbhguT5ZG1rLuLx0L5qGjKmC6TlPN8f0isMhHOys4iOHbwvMV8CXHE7OMpEaLxIGhKy4bcUiZ6XRMbVpQy3OYYwxZNwq40_NuV9lg1mqCtJLqfuGhMVstWZR8llNP6PKiQSgwAjXTzCptnmRGdHXexDVq3]--></g></svg>